<?xml version="1.0" encoding="utf-8"?>
<!-- Generator: Adobe Illustrator 19.1.0, SVG Export Plug-In . SVG Version: 6.00 Build 0)  -->
<svg version="1.1" id="Calque_1" xmlns="http://www.w3.org/2000/svg" xmlns:xlink="http://www.w3.org/1999/xlink" x="0px" y="0px"
	 viewBox="49 -27.5 197.1 104.5" style="enable-background:new 49 -27.5 197.1 104.5;" xml:space="preserve">
<style type="text/css">
	.st0{display:none;}
	.st1{display:inline;}
	.st2{opacity:0.4;}
	.st3{fill:#FFFFFF;}
	.st4{opacity:0.4;fill:#FFFFFF;enable-background:new    ;}
</style>
<g id="Layer_1" class="st0">
	<g class="st1">
		<g class="st2">
			<path class="st3" d="M89.2,97c0-2.1,1.6-3.4,3.3-3.4s2.7,1,3,2.1l-1,0.4c-0.2-0.8-0.8-1.4-1.9-1.4s-2.2,0.8-2.2,2.4
				c0,1.5,1.1,2.4,2.2,2.4s1.7-0.7,2-1.4l1,0.3c-0.3,1.1-1.3,2.2-3,2.2C90.8,100.4,89.2,99.1,89.2,97z"/>
			<path class="st3" d="M102.2,98.6h-2.8l-0.6,1.7h-1.2l2.6-6.6h1.3l2.6,6.6h-1.2L102.2,98.6z M99.8,97.6h2l-1-2.7L99.8,97.6z"/>
			<path class="st3" d="M107.9,97.7v2.6h-1.1v-6.6h2.4c1.3,0,2.1,0.9,2.1,2c0,1.2-0.8,2-2.1,2H107.9z M109,96.7c0.7,0,1.1-0.4,1.1-1
				s-0.4-1-1.1-1h-1.2v2H109z"/>
			<path class="st3" d="M114.2,100.3v-6.6h1.1v6.6H114.2z"/>
			<path class="st3" d="M121.3,94.7v5.5h-1.1v-5.5h-2.1v-1h5.4v1H121.3z"/>
			<path class="st3" d="M129.5,98.6h-2.8l-0.6,1.7h-1.2l2.6-6.6h1.3l2.6,6.6h-1.2L129.5,98.6z M127.1,97.6h2l-1-2.7L127.1,97.6z"/>
			<path class="st3" d="M134.1,100.3v-6.6h1.1v5.5h3v1.1H134.1z"/>
			<path class="st3" d="M146.4,97.7v2.6h-1.1v-6.6h2.4c1.3,0,2.1,0.9,2.1,2c0,1.2-0.8,2-2.1,2H146.4z M147.6,96.7
				c0.7,0,1.1-0.4,1.1-1s-0.4-1-1.1-1h-1.2v2H147.6z"/>
			<path class="st3" d="M156.1,98.6h-2.8l-0.6,1.7h-1.2l2.6-6.6h1.3l2.6,6.6h-1.2L156.1,98.6z M153.7,97.6h2l-1-2.7L153.7,97.6z"/>
			<path class="st3" d="M162.6,97.7h-0.8v2.6h-1.1v-6.6h2.5c1.3,0,2.1,0.9,2.1,2c0,0.9-0.6,1.7-1.5,1.9l1.5,2.7H164L162.6,97.7z
				 M163,96.7c0.7,0,1.1-0.4,1.1-1s-0.4-1-1.1-1h-1.2v2H163z"/>
			<path class="st3" d="M170.9,94.7v5.5h-1.1v-5.5h-2.1v-1h5.4v1H170.9z"/>
			<path class="st3" d="M180.2,100.3l-3.2-5v5h-1.1v-6.6h1.4l3,4.7v-4.7h1.1v6.6H180.2z"/>
			<path class="st3" d="M184.8,100.3v-6.6h4.1v1h-3v1.7h2.7v1h-2.7v1.7h3v1h-4.1V100.3z"/>
			<path class="st3" d="M194,97.7h-0.8v2.6H192v-6.6h2.5c1.3,0,2.1,0.9,2.1,2c0,0.9-0.6,1.7-1.5,1.9l1.5,2.7h-1.3L194,97.7z
				 M194.4,96.7c0.7,0,1.1-0.4,1.1-1s-0.4-1-1.1-1h-1.2v2H194.4z"/>
			<path class="st3" d="M203,95.5c-0.1-0.4-0.4-1-1.3-1c-0.7,0-1.1,0.4-1.1,0.9c0,0.4,0.3,0.7,0.8,0.8l0.9,0.2
				c1.2,0.2,1.8,1,1.8,1.9c0,1-0.8,2-2.3,2c-1.7,0-2.4-1.1-2.5-2l1-0.3c0.1,0.7,0.6,1.3,1.5,1.3c0.8,0,1.2-0.4,1.2-0.9
				c0-0.4-0.3-0.8-0.9-0.9l-0.9-0.2c-1-0.2-1.7-0.9-1.7-1.8c0-1.1,1-2,2.2-2c1.6,0,2.2,0.9,2.3,1.7L203,95.5z"/>
		</g>
		<g>
			<polygon class="st4" points="124.5,13.1 116.8,-2.9 109.1,-18.9 93.8,-18.9 101.5,-2.9 109.1,13.1 116.8,29.1 132.2,29.1 			"/>
			<polygon class="st4" points="193.7,13.1 186,-2.9 178.3,-18.9 162.9,-18.9 170.6,-2.9 178.3,13.1 186,29.1 201.3,29.1 			"/>
			<rect x="139.9" y="-18.9" class="st4" width="15.4" height="47.9"/>
			<polygon class="st3" points="139.9,-18.9 132.2,-2.9 124.5,13.1 116.8,29.1 132.2,29.1 139.9,13.1 147.6,-2.9 155.2,-18.9 			"/>
			<polygon class="st3" points="162.9,-18.9 155.2,-2.9 147.6,13.1 139.9,29.1 155.2,29.1 162.9,13.1 170.6,-2.9 178.3,-18.9 			"/>
		</g>
		<g>
			<path class="st3" d="M60.3,76.7l-7.5-18.9c-1.1-2.6-1.5-3-3.8-3.2v-1.3h12v1.3h-0.4c-2,0.1-2.5,0.4-2.5,1.5c0,0.4,0,0.5,0.9,3.1
				L63,70l3.5-8.7c0.9-2.2,1.4-4,1.4-4.9c0-0.6-0.3-1.2-0.7-1.4c-0.3-0.2-0.5-0.2-1.8-0.3h-0.3v-1.3h8.7v1.3
				c-2.4,0.2-2.9,0.8-4.3,4.5L62,76.7H60.3z"/>
			<path class="st3" d="M78.6,71.2c-0.3,0.7-0.4,1.4-0.4,1.9c0,0.6,0.3,1.1,0.7,1.4c0.4,0.2,0.9,0.3,2.2,0.4v1.3h-8.3v-1.3
				c2.1-0.1,3-1.2,4.6-5l7-16.9H86l7.3,18.2c1.3,3.1,1.7,3.5,4,3.7v1.3H85.6v-1.3h0.5c1.7-0.1,2.3-0.5,2.3-1.4
				c0-0.3-0.2-1.1-0.5-1.9L87,69.2h-7.7L78.6,71.2z M86.5,67.6l-3.2-8.1L80,67.6H86.5z"/>
			<path class="st3" d="M113.7,53.3c3.4,0,5.1,0.3,6.6,1.1c1.7,1,2.6,2.7,2.6,4.8c0,2.9-2.1,5-5.5,5.6c0,0,0,0,4.8,5.9
				c2.9,3.6,2.8,3.8,4.6,4.2v1.3h-4.6c-1.5,0-2.8-0.7-3.7-1.9l-5.9-8c-0.4-0.4-0.7-0.5-1.3-0.5h-0.5v3.7c0,5,0.2,5.4,3.3,5.4v1.3
				h-11.8v-1.3c3,0,3.3-0.4,3.3-5.4v-9.4c0-5-0.2-5.4-3.3-5.4v-1.3C102.3,53.3,110.3,53.3,113.7,53.3z M110.8,64.4
				c0.6,0,1.1,0,1.4,0c3.4,0,5-1.5,5-4.8c0-3.2-1.5-4.8-4.4-4.8c-1.3,0-1.7,0.1-1.8,0.3c-0.1,0.2-0.1,0.6-0.1,2.8L110.8,64.4
				L110.8,64.4z"/>
			<path class="st3" d="M136.5,71.2c-0.3,0.7-0.4,1.4-0.4,1.9c0,0.6,0.3,1.1,0.7,1.4c0.4,0.2,0.9,0.3,2.2,0.4v1.3h-8.3v-1.3
				c2.1-0.1,3-1.2,4.6-5l7.1-16.9h1.6l7.3,18.2c1.3,3.1,1.7,3.5,4,3.7v1.3h-11.8v-1.3h0.5c1.7-0.1,2.3-0.5,2.3-1.4
				c0-0.3-0.2-1.1-0.5-1.9l-0.9-2.4h-7.7L136.5,71.2z M144.3,67.6l-3.1-8.1l-3.3,8.1H144.3z"/>
			<path class="st3" d="M180.7,60.4h-1.5c-1.1-3.8-3.3-5.9-6.5-5.9c-4.4,0-7,3.9-7,10.6c0,6.1,2.5,9.8,6.7,9.8
				c1.4,0,2.8-0.5,3.6-1.2c0.6-0.7,0.9-1.5,0.9-2.9c0-2.4-0.3-2.8-2.8-3.1v-1.3h10.4v1.3c-1.9,0.1-2.2,0.4-2.2,2.5v4
				c-3.4,1.6-7.3,2.4-10.8,2.4c-3.4,0-6.5-1.2-8.6-3.3c-2.1-2.1-3.1-4.7-3.1-8c0-7.3,5-12.4,12-12.4c2.8,0,4.8,0.7,6.7,2.2l0.5-1.9
				h1.5L180.7,60.4z"/>
			<path class="st3" d="M215.4,65.1c0,3.3-1.6,6.5-4.2,8.7c-2.3,1.9-5.5,2.9-8.9,2.9c-7.5,0-13-5-13-11.8c0-6.9,5.5-11.9,13.1-11.9
				C210,53,215.4,58,215.4,65.1z M195.4,64.7c0,6.7,2.5,10.4,7.1,10.4c1.8,0,3.7-0.8,4.7-2c1.4-1.7,2.2-4.7,2.2-8c0-4.1-1-7.3-2.9-9
				c-0.9-0.9-2.5-1.4-4.1-1.4C197.9,54.6,195.4,58.2,195.4,64.7z"/>
			<path class="st3" d="M225.5,58.8V70c0,3.9,0.5,4.7,3.3,5v1.3h-8.1V75c1.5-0.2,2.2-0.5,2.6-1.3c0.3-0.6,0.4-1.4,0.4-3.7V56.9
				c-1.3-1.8-1.6-2.1-3-2.2c-0.1,0-0.2,0-0.4,0v-1.3h7.3l13.8,15.7v-9.7c0-3.6-0.7-4.5-3.3-4.8v-1.3h8.1v1.3
				c-1.6,0.2-2.1,0.4-2.6,1.1c-0.4,0.7-0.5,1.3-0.5,3.8v17.1h-1.7L225.5,58.8z"/>
		</g>
	</g>
</g>
<g>
	<path class="st3" d="M61,77.4l-7.5-19.2c-1.1-2.7-1.6-3.1-3.9-3.2v-1.4h12.2V55h-0.5c-2,0.1-2.5,0.4-2.5,1.6c0,0.4,0,0.6,0.9,3.2
		l4.1,11l3.5-8.9c0.9-2.2,1.4-4.1,1.4-5c0-0.6-0.3-1.2-0.7-1.4c-0.3-0.2-0.5-0.2-1.8-0.3h-0.3v-1.4h8.8v1.4c-2.4,0.2-3,0.8-4.4,4.6
		l-7.4,17.9H61V77.4z"/>
	<path class="st3" d="M79.7,71.8c-0.3,0.7-0.5,1.4-0.5,1.9c0,0.6,0.3,1.2,0.7,1.5c0.4,0.2,0.9,0.3,2.2,0.4V77h-8.5v-1.4
		c2.1-0.1,3.1-1.2,4.7-5.1l7.2-17.3h1.7l7.5,18.6c1.3,3.2,1.7,3.6,4,3.8V77H86.8v-1.4h0.6c1.8-0.1,2.4-0.5,2.4-1.5
		c0-0.3-0.2-1.1-0.5-2l-0.9-2.4h-7.8L79.7,71.8z M87.7,68.1l-3.2-8.3l-3.3,8.3H87.7z"/>
	<path class="st3" d="M115.4,53.6c3.4,0,5.2,0.3,6.8,1.2c1.7,1,2.7,2.8,2.7,4.8c0,3-2.1,5.1-5.6,5.7c0,0,0,0,4.9,6
		c3,3.7,2.8,3.9,4.6,4.3V77h-4.7c-1.5,0-2.9-0.7-3.8-1.9l-6-8.1c-0.3-0.4-0.6-0.5-1.2-0.5h-0.6v3.6c0,5.1,0.2,5.5,3.3,5.5V77h-12
		v-1.4c3.1,0,3.3-0.5,3.3-5.5v-9.6c0-5.1-0.2-5.5-3.3-5.5v-1.4C103.9,53.6,112,53.6,115.4,53.6z M112.5,64.9c0.6,0,1.1,0,1.4,0
		c3.5,0,5.1-1.5,5.1-4.9c0-3.2-1.5-4.8-4.5-4.8c-1.3,0-1.7,0.1-1.8,0.3c-0.1,0.2-0.1,0.6-0.1,2.9v6.5H112.5z"/>
	<path class="st3" d="M138.7,71.8c-0.3,0.7-0.5,1.4-0.5,1.9c0,0.6,0.3,1.2,0.7,1.5c0.4,0.2,0.9,0.3,2.2,0.4V77h-8.5v-1.4
		c2.1-0.1,3.1-1.2,4.7-5.1l7.2-17.3h1.7l7.5,18.6c1.3,3.2,1.7,3.6,4,3.8V77h-11.9v-1.4h0.6c1.8-0.1,2.4-0.5,2.4-1.5
		c0-0.3-0.2-1.1-0.5-2l-0.9-2.4h-7.8L138.7,71.8z M146.7,68.1l-3.2-8.3l-3.3,8.3H146.7z"/>
	<path class="st3" d="M224.2,59.2v11.4c0,4,0.5,4.7,3.3,5.1v1.4h-8.2v-1.4c1.5-0.2,2.3-0.5,2.7-1.3c0.3-0.6,0.5-1.4,0.5-3.8V57.2
		c-1.3-1.8-1.7-2.1-3.1-2.3c-0.1,0-0.2,0-0.5,0v-1.3h7.4l14,16v-9.8c0-3.6-0.7-4.6-3.4-4.8v-1.4h8.3V55c-1.7,0.2-2.2,0.5-2.6,1.2
		c-0.5,0.7-0.5,1.3-0.5,3.9v17.4h-1.7L224.2,59.2z"/>
	<path class="st3" d="M173.8,65.2c0,0.4,0,1,0,1.4c0.4,0.1,0.8,0.1,1.2,0.2c1.2,0.2,2,0.8,2,1.9v5.2c0,0.9-0.7,1.6-1.6,1.7
		c-2.7,0.2-4.8-0.5-6-2c-1.1-1.4-1.7-3.1-2-4.9c-0.3-1.8-0.4-3.6-0.2-5.4c0.2-1.9,0.7-3.7,1.7-5.3c2.3-3.6,7-3.8,9.7-1.1
		c0.9,0.9,1.7,2.2,2.2,3.4h1.4v-6.8h-1.4c0,0.1-0.1,0.5-0.2,0.6c-0.2,0.5-0.7,0.8-1.3,0.7c-0.6-0.2-1.4-0.5-2-0.7
		c-1.9-0.6-3.9-1-5.9-0.7c-2.5,0.3-4.6,1.3-6.5,2.9c-1.4,1.3-2.6,2.7-3.3,4.5c-0.8,2.1-1,4.2-0.7,6.4c0.3,2.3,1.4,4.4,2.9,6.1
		c2.5,2.6,5.6,3.9,9.2,4.1c2.1,0.1,4.2-0.2,6.2-0.9c1.1-0.4,2-0.9,3-1.3c0,0,0-4.7,0-6.4c0-1.5,1-2.2,2.1-2.2v-1.4
		C180.8,65.2,177.4,65.2,173.8,65.2z"/>
	<path class="st3" d="M202.4,53.2c-6.7,0-12.1,5.4-12.1,12.1s5.4,12.1,12.1,12.1c6.7,0,12.1-5.4,12.1-12.1S209.1,53.2,202.4,53.2z
		 M206.5,73.7c-0.8,1.3-2.4,2.1-4,2.1c-3.9,0-6.1-3.8-6.1-10.6c0-6.6,2.1-10.3,5.9-10.3c1.3,0,2.7,0.6,3.5,1.5
		c1.6,1.8,2.5,5,2.5,9.2C208.3,69,207.7,72,206.5,73.7z"/>
</g>
</svg>
