<?xml version="1.0" encoding="UTF-8"?>
<!DOCTYPE svg PUBLIC "-//W3C//DTD SVG 1.1//EN" "http://www.w3.org/Graphics/SVG/1.1/DTD/svg11.dtd">
<!-- Creator: CorelDRAW 2018 (64-Bit Evaluation Version) -->
<svg xmlns="http://www.w3.org/2000/svg" xml:space="preserve" width="3508px" height="2480px" version="1.1" style="shape-rendering:geometricPrecision; text-rendering:geometricPrecision; image-rendering:optimizeQuality; fill-rule:evenodd; clip-rule:evenodd"
viewBox="0 0 3508 2480.4"
 xmlns:xlink="http://www.w3.org/1999/xlink">
 <defs>
  <style type="text/css">
   <![CDATA[
    .fil1 {fill:#FFCC29}
    .fil0 {fill:#FFCC29;fill-rule:nonzero}
   ]]>
  </style>
 </defs>
 <g id="Layer_x0020_1">
  <metadata id="CorelCorpID_0Corel-Layer"/>
  <g id="_2548971430432">
   <path class="fil0" d="M2067.72 1381.39c31.53,-5.38 61.45,15.82 66.83,47.34 5.38,31.53 -15.82,61.45 -47.34,66.83 -7.68,1.32 -15.08,2.28 -22.19,2.89 -7.52,0.64 -14.89,0.96 -22.07,0.96 -72.29,0 -137.76,-29.31 -185.14,-76.69 -47.38,-47.39 -76.69,-112.85 -76.69,-185.14 0,-72.3 29.31,-137.76 76.69,-185.14 47.38,-47.39 112.85,-76.7 185.14,-76.7 72.3,0 137.76,29.31 185.14,76.7 47.38,47.38 76.7,112.84 76.7,185.14 0,32.03 -25.97,57.99 -58,57.99 -32.03,0 -57.99,-25.96 -57.99,-57.99 0,-40.28 -16.33,-76.75 -42.71,-103.14 -26.39,-26.39 -62.86,-42.71 -103.14,-42.71 -40.28,0 -76.75,16.32 -103.13,42.71 -26.39,26.39 -42.72,62.86 -42.72,103.14 0,40.28 16.33,76.74 42.72,103.13 26.38,26.39 62.85,42.71 103.13,42.71 4.39,0 8.57,-0.17 12.55,-0.5 4.42,-0.38 8.49,-0.89 12.22,-1.53z"/>
   <path class="fil0" d="M2188.8 1237.58c0,-32.03 25.96,-58 57.99,-58 32.03,0 58,25.97 58,58l0 376.89c0,32.03 -25.97,57.99 -58,57.99 -32.03,0 -57.99,-25.96 -57.99,-57.99l0 -376.89z"/>
   <path class="fil0" d="M1515.13 968.06c31.41,6.01 52,36.33 45.99,67.74 -6,31.4 -36.33,51.99 -67.73,45.98 -5.3,-1.02 -9.95,-1.72 -13.93,-2.1 -3.33,-0.32 -8.03,-0.48 -14.11,-0.48 -40.83,0 -77.79,16.55 -104.53,43.3 -26.75,26.74 -43.29,63.7 -43.29,104.53 0,40.82 16.54,77.78 43.29,104.53 26.74,26.74 63.7,43.29 104.53,43.29 40.83,0 77.79,-16.55 104.53,-43.29 26.75,-26.75 43.29,-63.71 43.29,-104.53 0,-32.03 25.97,-58 58,-58 32.03,0 57.99,25.97 57.99,58 0,72.84 -29.53,138.79 -77.27,186.53 -47.75,47.74 -113.7,77.28 -186.54,77.28 -72.84,0 -138.79,-29.54 -186.54,-77.28 -47.74,-47.74 -77.27,-113.69 -77.27,-186.53 0,-72.85 29.53,-138.8 77.27,-186.54 47.75,-47.74 113.7,-77.27 186.54,-77.27 6.98,0 15.32,0.46 24.98,1.38 9,0.86 17.29,2.02 24.8,3.46z"/>
   <path class="fil0" d="M1729.16 1207.79c0,32.03 -25.96,58 -57.99,58 -32.03,0 -58,-25.97 -58,-58l0 -337.63c0,-32.03 25.97,-57.99 58,-57.99 2.19,0 4.35,0.12 6.47,0.36 1.15,-0.08 2.31,-0.13 3.48,-0.14l567.11 -4.88c31.91,-0.25 57.97,25.41 58.22,57.31 0.25,31.91 -25.41,57.97 -57.31,58.22 -153.75,1.33 -307.51,2.65 -461.26,3.98 -40.78,0 -58.72,15.55 -58.72,62.89l0 217.88z"/>
   <path class="fil1" d="M1465.35 1285.86c36.91,0 66.84,-29.92 66.84,-66.84 0,-36.91 -29.93,-66.83 -66.84,-66.83 -36.91,0 -66.83,29.92 -66.83,66.83 0,36.92 29.92,66.84 66.83,66.84z"/>
   <path class="fil0" d="M1407.7 1672.38c-32.03,0 -58,-25.96 -58,-57.99 0,-32.03 25.97,-57.99 58,-57.99l678.24 0c32.03,0 58,25.96 58,57.99 0,32.03 -25.97,57.99 -58,57.99l-678.24 0z"/>
   <path class="fil1" d="M1260.05 1672.9c32.31,0 58.5,-26.2 58.5,-58.51 0,-32.31 -26.19,-58.51 -58.5,-58.51 -32.31,0 -58.51,26.2 -58.51,58.51 0,32.31 26.2,58.51 58.51,58.51z"/>
  </g>
 </g>
</svg>
