<svg xmlns="http://www.w3.org/2000/svg" viewBox="0 0 198 105" width="198" height="105">
	<style>
		tspan { white-space:pre }
		.shp0 { fill: #ffffff } 
	</style>
	<g id="Layer">
		<path id="Layer" class="shp0" d="M12 105.4L4.5 86.2C3.4 83.5 2.9 83.1 0.6 83L0.6 81.6L12.8 81.6L12.8 83L12.3 83C10.3 83.1 9.8 83.4 9.8 84.6C9.8 85 9.8 85.2 10.7 87.8L14.8 98.8L18.3 89.9C19.2 87.7 19.7 85.8 19.7 84.9C19.7 84.3 19.4 83.7 19 83.5C18.7 83.3 18.5 83.3 17.2 83.2L16.9 83.2L16.9 81.8L25.7 81.8L25.7 83.2C23.3 83.4 22.7 84 21.3 87.8L13.9 105.7L12 105.7L12 105.4Z" />
		<path id="Layer" fill-rule="evenodd" class="shp0" d="M30.7 99.8C30.4 100.5 30.2 101.2 30.2 101.7C30.2 102.3 30.5 102.9 30.9 103.2C31.3 103.4 31.8 103.5 33.1 103.6L33.1 105L24.6 105L24.6 103.6C26.7 103.5 27.7 102.4 29.3 98.5L36.5 81.2L38.2 81.2L45.7 99.8C47 103 47.4 103.4 49.7 103.6L49.7 105L37.8 105L37.8 103.6L38.4 103.6C40.2 103.5 40.8 103.1 40.8 102.1C40.8 101.8 40.6 101 40.3 100.1L39.4 97.7L31.6 97.7L30.7 99.8ZM38.7 96.1L35.5 87.8L32.2 96.1L38.7 96.1Z" />
		<path id="Layer" fill-rule="evenodd" class="shp0" d="M66.4 81.6C69.8 81.6 71.6 81.9 73.2 82.8C74.9 83.8 75.9 85.6 75.9 87.6C75.9 90.6 73.8 92.7 70.3 93.3C70.3 93.3 70.3 93.3 75.2 99.3C78.2 103 78 103.2 79.8 103.6L79.8 105L75.1 105C73.6 105 72.2 104.3 71.3 103.1L65.3 95C65 94.6 64.7 94.5 64.1 94.5L63.5 94.5L63.5 98.1C63.5 103.2 63.7 103.6 66.8 103.6L66.8 105L54.8 105L54.8 103.6C57.9 103.6 58.1 103.1 58.1 98.1L58.1 88.5C58.1 83.4 57.9 83 54.8 83L54.8 81.6C54.9 81.6 63 81.6 66.4 81.6ZM64.9 92.9C68.4 92.9 70 91.4 70 88C70 84.8 68.5 83.2 65.5 83.2C64.2 83.2 63.8 83.3 63.7 83.5C63.6 83.7 63.6 84.1 63.6 86.4L63.6 92.9C64.2 92.9 64.6 92.9 64.9 92.9Z" />
		<path id="Layer" fill-rule="evenodd" class="shp0" d="M89.7 99.8C89.4 100.5 89.2 101.2 89.2 101.7C89.2 102.3 89.5 102.9 89.9 103.2C90.3 103.4 90.8 103.5 92.1 103.6L92.1 105L83.6 105L83.6 103.6C85.7 103.5 86.7 102.4 88.3 98.5L95.5 81.2L97.2 81.2L104.7 99.8C106 103 106.4 103.4 108.7 103.6L108.7 105L96.8 105L96.8 103.6L97.4 103.6C99.2 103.5 99.8 103.1 99.8 102.1C99.8 101.8 99.6 101 99.3 100.1L98.4 97.7L90.6 97.7L89.7 99.8ZM97.7 96.1L94.5 87.8L91.2 96.1L97.7 96.1Z" />
		<path id="Layer" class="shp0" d="M175.2 87.2L175.2 98.6C175.2 102.6 175.7 103.3 178.5 103.7L178.5 105.1L170.3 105.1L170.3 103.7C171.8 103.5 172.6 103.2 173 102.4C173.3 101.8 173.5 101 173.5 98.6L173.5 85.2C172.2 83.4 171.8 83.1 170.4 82.9C170.3 82.9 170.2 82.9 169.9 82.9L169.9 81.6L177.3 81.6L191.3 97.6L191.3 87.8C191.3 84.2 190.6 83.2 187.9 83L187.9 81.6L196.2 81.6L196.2 83C194.5 83.2 194 83.5 193.6 84.2C193.1 84.9 193.1 85.5 193.1 88.1L193.1 105.5L191.4 105.5L175.2 87.2Z" />
		<path id="Layer" class="shp0" d="M124.8 93.2C124.8 93.6 124.8 94.2 124.8 94.6C125.2 94.7 125.6 94.7 126 94.8C127.2 95 128 95.6 128 96.7L128 101.9C128 102.8 127.3 103.5 126.4 103.6C123.7 103.8 121.6 103.1 120.4 101.6C119.3 100.2 118.7 98.5 118.4 96.7C118.1 94.9 118 93.1 118.2 91.3C118.4 89.4 118.9 87.6 119.9 86C122.2 82.4 126.9 82.2 129.6 84.9C130.5 85.8 131.3 87.1 131.8 88.3L133.2 88.3L133.2 81.5L131.8 81.5C131.8 81.6 131.7 82 131.6 82.1C131.4 82.6 130.9 82.9 130.3 82.8C129.7 82.6 128.9 82.3 128.3 82.1C126.4 81.5 124.4 81.1 122.4 81.4C119.9 81.7 117.8 82.7 115.9 84.3C114.5 85.6 113.3 87 112.6 88.8C111.8 90.9 111.6 93 111.9 95.2C112.2 97.5 113.3 99.6 114.8 101.3C117.3 103.9 120.4 105.2 124 105.4C126.1 105.5 128.2 105.2 130.2 104.5C131.3 104.1 132.2 103.6 133.2 103.2C133.2 103.2 133.2 98.5 133.2 96.8C133.2 95.3 134.2 94.6 135.3 94.6L135.3 93.2C131.8 93.2 128.4 93.2 124.8 93.2Z" />
		<path id="Layer" fill-rule="evenodd" class="shp0" d="M165.5 93.3C165.5 100 160.1 105.4 153.4 105.4C146.7 105.4 141.3 100 141.3 93.3C141.3 86.6 146.7 81.2 153.4 81.2C160.1 81.2 165.5 86.6 165.5 93.3ZM159.3 93.6C159.3 89.4 158.4 86.2 156.8 84.4C156 83.5 154.6 82.9 153.3 82.9C149.5 82.9 147.4 86.6 147.4 93.2C147.4 100 149.6 103.8 153.5 103.8C155.1 103.8 156.7 103 157.5 101.7C158.7 100 159.3 97 159.3 93.6Z" />
	</g>
</svg>