<?xml version="1.0" encoding="utf-8"?>
<!-- Generator: Adobe Illustrator 22.0.0, SVG Export Plug-In . SVG Version: 6.00 Build 0)  -->
<svg version="1.1" id="Calque_1" xmlns="http://www.w3.org/2000/svg" xmlns:xlink="http://www.w3.org/1999/xlink" x="0px" y="0px"
	 viewBox="0 0 76 76" style="enable-background:new 0 0 76 76;" xml:space="preserve">
<style type="text/css">
	.st0{fill:none;}
	.st1{fill:#074DBE;}
</style>
<path class="st0" d="M26,26h24v24H26V26z"/>
<path class="st1" d="M18.9,33.7C24,43.8,32.2,52,42.3,57.1l7.8-7.8c1-1,2.4-1.3,3.6-0.9c4,1.3,8.3,2,12.7,2c2,0,3.6,1.6,3.6,3.6
	v12.4c0,2-1.6,3.6-3.6,3.6C33.1,70,6,42.9,6,9.6C6,7.6,7.6,6,9.6,6H22c2,0,3.6,1.6,3.6,3.6c0,4.4,0.7,8.7,2,12.7
	c0.4,1.2,0.1,2.6-0.9,3.6L18.9,33.7z"/>
</svg>
