<?xml version="1.0" encoding="utf-8"?>
<!-- Generator: Adobe Illustrator 19.1.0, SVG Export Plug-In . SVG Version: 6.00 Build 0)  -->
<svg version="1.1" xmlns="http://www.w3.org/2000/svg" xmlns:xlink="http://www.w3.org/1999/xlink" x="0px" y="0px"
	 viewBox="0 0 197.1 121.2" style="enable-background:new 0 0 197.1 121.2;" xml:space="preserve">
<style type="text/css">
	.st0{display:none;}
	.st1{display:inline;}
	.st2{opacity:0.4;}
	.st3{fill:#FFFFFF;}
	.st4{opacity:0.4;fill:#FFFFFF;}
	.st5{opacity:0.45;fill:#FFFFFF;}
</style>
<g id="Layer_1" class="st0">
	<g class="st1">
		<g class="st2">
			<path class="st3" d="M40.2,117.8c0-2.1,1.6-3.4,3.3-3.4c1.7,0,2.7,1,3,2.1l-1,0.4c-0.2-0.8-0.8-1.4-1.9-1.4
				c-1.1,0-2.2,0.8-2.2,2.4c0,1.5,1.1,2.4,2.2,2.4c1.1,0,1.7-0.7,2-1.4l1,0.3c-0.3,1.1-1.3,2.2-3,2.2
				C41.8,121.2,40.2,120,40.2,117.8z"/>
			<path class="st3" d="M53.2,119.5h-2.8l-0.6,1.7h-1.2l2.6-6.6h1.3l2.6,6.6h-1.2L53.2,119.5z M50.8,118.4h2l-1-2.7L50.8,118.4z"/>
			<path class="st3" d="M58.9,118.5v2.6h-1.1v-6.6h2.4c1.3,0,2.1,0.9,2.1,2c0,1.2-0.8,2-2.1,2H58.9z M60,117.6c0.7,0,1.1-0.4,1.1-1
				c0-0.6-0.4-1-1.1-1h-1.2v2H60z"/>
			<path class="st3" d="M65.2,121.1v-6.6h1.1v6.6H65.2z"/>
			<path class="st3" d="M72.3,115.6v5.5h-1.1v-5.5h-2.1v-1h5.4v1H72.3z"/>
			<path class="st3" d="M80.5,119.5h-2.8l-0.6,1.7h-1.2l2.6-6.6h1.3l2.6,6.6h-1.2L80.5,119.5z M78.1,118.4h2l-1-2.7L78.1,118.4z"/>
			<path class="st3" d="M85.1,121.1v-6.6h1.1v5.5h3v1.1H85.1z"/>
			<path class="st3" d="M97.4,118.5v2.6h-1.1v-6.6h2.4c1.3,0,2.1,0.9,2.1,2c0,1.2-0.8,2-2.1,2H97.4z M98.6,117.6
				c0.7,0,1.1-0.4,1.1-1c0-0.6-0.4-1-1.1-1h-1.2v2H98.6z"/>
			<path class="st3" d="M107.1,119.5h-2.8l-0.6,1.7h-1.2l2.6-6.6h1.3l2.6,6.6h-1.2L107.1,119.5z M104.7,118.4h2l-1-2.7L104.7,118.4z
				"/>
			<path class="st3" d="M113.6,118.5h-0.8v2.6h-1.1v-6.6h2.5c1.3,0,2.1,0.9,2.1,2c0,0.9-0.6,1.7-1.5,1.9l1.5,2.7H115L113.6,118.5z
				 M114,117.5c0.7,0,1.1-0.4,1.1-1c0-0.6-0.4-1-1.1-1h-1.2v2H114z"/>
			<path class="st3" d="M121.9,115.6v5.5h-1.1v-5.5h-2.1v-1h5.4v1H121.9z"/>
			<path class="st3" d="M131.2,121.1l-3.2-5v5h-1.1v-6.6h1.4l3,4.7v-4.7h1.1v6.6H131.2z"/>
			<path class="st3" d="M135.8,121.1v-6.6h4.1v1h-3v1.7h2.7v1h-2.7v1.7h3v1H135.8z"/>
			<path class="st3" d="M145,118.5h-0.8v2.6H143v-6.6h2.5c1.3,0,2.1,0.9,2.1,2c0,0.9-0.6,1.7-1.5,1.9l1.5,2.7h-1.3L145,118.5z
				 M145.4,117.5c0.7,0,1.1-0.4,1.1-1c0-0.6-0.4-1-1.1-1h-1.2v2H145.4z"/>
			<path class="st3" d="M154,116.4c-0.1-0.4-0.4-1-1.3-1c-0.7,0-1.1,0.4-1.1,0.9c0,0.4,0.3,0.7,0.8,0.8l0.9,0.2
				c1.2,0.2,1.8,1,1.8,1.9c0,1-0.8,2-2.3,2c-1.7,0-2.4-1.1-2.5-2l1-0.3c0.1,0.7,0.6,1.3,1.5,1.3c0.8,0,1.2-0.4,1.2-0.9
				c0-0.4-0.3-0.8-0.9-0.9l-0.9-0.2c-1-0.2-1.7-0.9-1.7-1.8c0-1.1,1-2,2.2-2c1.6,0,2.2,0.9,2.3,1.7L154,116.4z"/>
		</g>
		<g>
			<polygon class="st4" points="75.5,33.9 67.8,17.9 60.1,2 44.8,2 52.5,17.9 60.1,33.9 67.8,49.9 83.2,49.9 			"/>
			<polygon class="st4" points="144.7,33.9 137,17.9 129.3,2 113.9,2 121.6,17.9 129.3,33.9 137,49.9 152.3,49.9 			"/>
			<rect x="90.9" y="2" class="st4" width="15.4" height="47.9"/>
			<polygon class="st3" points="90.9,2 83.2,17.9 75.5,33.9 67.8,49.9 83.2,49.9 90.9,33.9 98.6,17.9 106.2,2 			"/>
			<polygon class="st3" points="113.9,2 106.2,17.9 98.6,33.9 90.9,49.9 106.2,49.9 113.9,33.9 121.6,17.9 129.3,2 			"/>
		</g>
		<g>
			<path class="st3" d="M11.3,97.5L3.8,78.7c-1.1-2.6-1.5-3-3.8-3.2v-1.3h12v1.3h-0.4c-2,0.1-2.5,0.4-2.5,1.5c0,0.4,0,0.5,0.9,3.1
				l4,10.8l3.5-8.7c0.9-2.2,1.4-4,1.4-4.9c0-0.6-0.3-1.2-0.7-1.4c-0.3-0.2-0.5-0.2-1.8-0.3l-0.3,0v-1.3h8.7v1.3
				c-2.4,0.2-2.9,0.8-4.3,4.5L13,97.5H11.3z"/>
			<path class="st3" d="M29.6,92.1c-0.3,0.7-0.4,1.4-0.4,1.9c0,0.6,0.3,1.1,0.7,1.4c0.4,0.2,0.9,0.3,2.2,0.4v1.3h-8.3v-1.3
				c2.1-0.1,3-1.2,4.6-5l7-16.9H37l7.3,18.2c1.3,3.1,1.7,3.5,4,3.7v1.3H36.6v-1.3l0.5,0c1.7-0.1,2.3-0.5,2.3-1.4
				c0-0.3-0.2-1.1-0.5-1.9l-0.9-2.4h-7.7L29.6,92.1z M37.5,88.4l-3.1-8.1l-3.3,8.1H37.5z"/>
			<path class="st3" d="M64.7,74.2c3.4,0,5.1,0.3,6.6,1.1c1.7,1,2.6,2.7,2.6,4.8c0,2.9-2.1,5-5.5,5.6c0,0,0,0,4.8,5.9
				c2.9,3.6,2.8,3.8,4.6,4.2v1.3h-4.6c-1.5,0-2.8-0.7-3.7-1.9l-5.9-8c-0.4-0.4-0.7-0.5-1.3-0.5l-0.5,0v3.5c0,5,0.2,5.4,3.3,5.4v1.3
				H53.3v-1.3c3,0,3.3-0.4,3.3-5.4V81c0-5-0.2-5.4-3.3-5.4v-1.3C53.3,74.2,61.3,74.2,64.7,74.2z M61.8,85.3c0.6,0,1.1,0,1.4,0
				c3.4,0,5-1.5,5-4.8c0-3.2-1.5-4.8-4.4-4.8c-1.3,0-1.7,0.1-1.8,0.3c-0.1,0.2-0.1,0.6-0.1,2.8V85.3z"/>
			<path class="st3" d="M87.5,92.1C87.2,92.8,87,93.5,87,94c0,0.6,0.3,1.1,0.7,1.4c0.4,0.2,0.9,0.3,2.2,0.4v1.3h-8.3v-1.3
				c2.1-0.1,3-1.2,4.6-5l7.1-16.9h1.6l7.3,18.2c1.3,3.1,1.7,3.5,4,3.7v1.3H94.5v-1.3l0.5,0c1.7-0.1,2.3-0.5,2.3-1.4
				c0-0.3-0.2-1.1-0.5-1.9l-0.9-2.4h-7.7L87.5,92.1z M95.3,88.4l-3.1-8.1l-3.3,8.1H95.3z"/>
			<path class="st3" d="M131.7,81.3h-1.5c-1.1-3.8-3.3-5.9-6.5-5.9c-4.4,0-7,3.9-7,10.6c0,6.1,2.5,9.8,6.7,9.8
				c1.4,0,2.8-0.5,3.6-1.2c0.6-0.7,0.9-1.5,0.9-2.9c0-2.4-0.3-2.8-2.8-3.1v-1.3h10.4v1.3c-1.9,0.1-2.2,0.4-2.2,2.5v4
				c-3.4,1.6-7.3,2.4-10.8,2.4c-3.4,0-6.5-1.2-8.6-3.3c-2.1-2.1-3.1-4.7-3.1-8c0-7.3,5-12.4,12-12.4c2.8,0,4.8,0.7,6.7,2.2l0.5-1.9
				h1.5L131.7,81.3z"/>
			<path class="st3" d="M166.4,85.9c0,3.3-1.6,6.5-4.2,8.7c-2.3,1.9-5.5,2.9-8.9,2.9c-7.5,0-13-5-13-11.8c0-6.9,5.5-11.9,13.1-11.9
				C161,73.8,166.4,78.8,166.4,85.9z M146.4,85.5c0,6.7,2.5,10.4,7.1,10.4c1.8,0,3.7-0.8,4.7-2c1.4-1.7,2.2-4.7,2.2-8
				c0-4.1-1-7.3-2.9-9c-0.9-0.9-2.5-1.4-4.1-1.4C148.9,75.4,146.4,79,146.4,85.5z"/>
			<path class="st3" d="M176.5,79.6v11.2c0,3.9,0.5,4.7,3.3,5v1.3h-8.1v-1.3c1.5-0.2,2.2-0.5,2.6-1.3c0.3-0.6,0.4-1.4,0.4-3.7V77.7
				c-1.3-1.8-1.6-2.1-3-2.2c-0.1,0-0.2,0-0.4,0v-1.3h7.3l13.8,15.7v-9.7c0-3.6-0.7-4.5-3.3-4.8v-1.3h8.1v1.3
				c-1.6,0.2-2.1,0.4-2.6,1.1c-0.4,0.7-0.5,1.3-0.5,3.8v17.1h-1.7L176.5,79.6z"/>
		</g>
	</g>
</g>
<g id="Calque_2">
	<g>
		<g>
			<polygon class="st5" points="150.6,42.9 130,0 114.3,0 134.9,42.9 			"/>
		</g>
		<g>
			<polygon class="st5" points="62.2,6.1 46.5,6.1 67.1,49.1 82.8,49.1 			"/>
		</g>
		<rect x="90.7" y="0" class="st5" width="15.7" height="49.1"/>
		<polygon class="st3" points="90.7,0 67.1,49.1 82.8,49.1 106.4,0 		"/>
		<polygon class="st3" points="114.3,0 90.7,49.1 106.4,49.1 130,0 		"/>
	</g>
	<g>
		<path class="st3" d="M12.2,104.9L4.6,85.7c-1.1-2.7-1.6-3.1-3.9-3.2v-1.4h12.2v1.4h-0.5c-2,0.1-2.5,0.4-2.5,1.6
			c0,0.4,0,0.6,0.9,3.2l4.1,11l3.5-8.9c0.9-2.2,1.4-4.1,1.4-5c0-0.6-0.3-1.2-0.7-1.4c-0.3-0.2-0.5-0.2-1.8-0.3l-0.3,0v-1.4h8.8v1.4
			c-2.4,0.2-3,0.8-4.4,4.6l-7.4,17.9H12.2z"/>
		<path class="st3" d="M30.9,99.3c-0.3,0.7-0.5,1.4-0.5,1.9c0,0.6,0.3,1.2,0.7,1.5c0.4,0.2,0.9,0.3,2.2,0.4v1.4h-8.5v-1.4
			c2.1-0.1,3.1-1.2,4.7-5.1l7.2-17.3h1.7l7.5,18.6c1.3,3.2,1.7,3.6,4,3.8v1.4H38v-1.4l0.6,0c1.8-0.1,2.4-0.5,2.4-1.5
			c0-0.3-0.2-1.1-0.5-2l-0.9-2.4h-7.8L30.9,99.3z M38.9,95.6l-3.2-8.3l-3.3,8.3H38.9z"/>
		<path class="st3" d="M66.6,81.1c3.4,0,5.2,0.3,6.8,1.2c1.7,1,2.7,2.8,2.7,4.8c0,3-2.1,5.1-5.6,5.7c0,0,0,0,4.9,6
			c3,3.7,2.8,3.9,4.6,4.3v1.4h-4.7c-1.5,0-2.9-0.7-3.8-1.9l-6-8.1c-0.4-0.4-0.7-0.5-1.3-0.5l-0.6,0v3.6c0,5.1,0.2,5.5,3.3,5.5v1.4
			H55v-1.4c3.1,0,3.3-0.5,3.3-5.5V88c0-5.1-0.2-5.5-3.3-5.5v-1.4C55,81.1,63.2,81.1,66.6,81.1z M63.7,92.4c0.6,0,1.1,0,1.4,0
			c3.5,0,5.1-1.5,5.1-4.9c0-3.2-1.5-4.8-4.5-4.8c-1.3,0-1.7,0.1-1.8,0.3c-0.1,0.2-0.1,0.6-0.1,2.9V92.4z"/>
		<path class="st3" d="M89.8,99.3c-0.3,0.7-0.5,1.4-0.5,1.9c0,0.6,0.3,1.2,0.7,1.5c0.4,0.2,0.9,0.3,2.2,0.4v1.4h-8.5v-1.4
			c2.1-0.1,3.1-1.2,4.7-5.1l7.2-17.3h1.7l7.5,18.6c1.3,3.2,1.7,3.6,4,3.8v1.4H97v-1.4l0.6,0c1.8-0.1,2.4-0.5,2.4-1.5
			c0-0.3-0.2-1.1-0.5-2l-0.9-2.4h-7.8L89.8,99.3z M97.8,95.6l-3.2-8.3l-3.3,8.3H97.8z"/>
		<path class="st3" d="M175.4,86.7v11.4c0,4,0.5,4.7,3.3,5.1v1.4h-8.2v-1.4c1.5-0.2,2.3-0.5,2.7-1.3c0.3-0.6,0.5-1.4,0.5-3.8V84.7
			c-1.3-1.8-1.7-2.1-3.1-2.3c-0.1,0-0.2,0-0.5,0v-1.3h7.4l14,16v-9.8c0-3.6-0.7-4.6-3.4-4.8v-1.4h8.3v1.4c-1.7,0.2-2.2,0.5-2.6,1.2
			c-0.5,0.7-0.5,1.3-0.5,3.9V105h-1.7L175.4,86.7z"/>
		<path class="st3" d="M125,92.7c0,0.4,0,1,0,1.4c0.4,0.1,0.8,0.1,1.2,0.2c1.2,0.2,2,0.8,2,1.9v5.2c0,0.9-0.7,1.6-1.6,1.7
			c-2.7,0.2-4.8-0.5-6-2c-1.1-1.4-1.7-3.1-2-4.9c-0.3-1.8-0.4-3.6-0.2-5.4c0.2-1.9,0.7-3.7,1.7-5.3c2.3-3.6,7-3.8,9.7-1.1
			c0.9,0.9,1.7,2.2,2.2,3.4h1.4V81H132c0,0.1-0.1,0.5-0.2,0.6c-0.2,0.5-0.7,0.8-1.3,0.7c-0.6-0.2-1.4-0.5-2-0.7
			c-1.9-0.6-3.9-1-5.9-0.7c-2.5,0.3-4.6,1.3-6.5,2.9c-1.4,1.3-2.6,2.7-3.3,4.5c-0.8,2.1-1,4.2-0.7,6.4c0.3,2.3,1.4,4.4,2.9,6.1
			c2.5,2.6,5.6,3.9,9.2,4.1c2.1,0.1,4.2-0.2,6.2-0.9c1.1-0.4,2-0.9,3-1.3c0,0,0-4.7,0-6.4c0-1.5,1-2.2,2.1-2.2v-1.4
			C132,92.7,128.6,92.7,125,92.7z"/>
		<path class="st3" d="M153.6,80.7c-6.7,0-12.1,5.4-12.1,12.1c0,6.7,5.4,12.1,12.1,12.1c6.7,0,12.1-5.4,12.1-12.1
			C165.6,86.1,160.2,80.7,153.6,80.7z M157.7,101.2c-0.8,1.3-2.4,2.1-4,2.1c-3.9,0-6.1-3.8-6.1-10.6c0-6.6,2.1-10.3,5.9-10.3
			c1.3,0,2.7,0.6,3.5,1.5c1.6,1.8,2.5,5,2.5,9.2C159.5,96.5,158.8,99.5,157.7,101.2z"/>
	</g>
</g>
</svg>
