<?xml version="1.0" encoding="utf-8"?>
<!-- Generator: Adobe Illustrator 19.1.0, SVG Export Plug-In . SVG Version: 6.00 Build 0)  -->
<svg version="1.1" id="Calque_1" xmlns="http://www.w3.org/2000/svg" xmlns:xlink="http://www.w3.org/1999/xlink" x="0px" y="0px"
	 viewBox="98 -46.4 197.2 119.5" style="enable-background:new 98 -46.4 197.2 119.5;" xml:space="preserve">
<style type="text/css">
	.st0{display:none;}
	.st1{display:inline;}
	.st2{opacity:0.4;}
	.st3{fill:#FFFFFF;}
	.st4{opacity:0.4;fill:#FFFFFF;enable-background:new    ;}
	.st5{fill:#1B1F25;}
</style>
<g id="Layer_1" class="st0">
	<g class="st1">
		<g class="st2">
			<path class="st3" d="M138.2,69.5c0-2.1,1.6-3.4,3.3-3.4s2.7,1,3,2.1l-1,0.4c-0.2-0.8-0.8-1.4-1.9-1.4c-1.1,0-2.2,0.8-2.2,2.4
				c0,1.5,1.1,2.4,2.2,2.4c1.1,0,1.7-0.7,2-1.4l1,0.3c-0.3,1.1-1.3,2.2-3,2.2C139.8,72.9,138.2,71.6,138.2,69.5z"/>
			<path class="st3" d="M151.2,71.1h-2.8l-0.6,1.7h-1.2l2.6-6.6h1.3l2.6,6.6h-1.2L151.2,71.1z M148.8,70.1h2l-1-2.7L148.8,70.1z"/>
			<path class="st3" d="M156.9,70.2v2.6h-1.1v-6.6h2.4c1.3,0,2.1,0.9,2.1,2c0,1.2-0.8,2-2.1,2H156.9z M158,69.2c0.7,0,1.1-0.4,1.1-1
				s-0.4-1-1.1-1h-1.2v2H158z"/>
			<path class="st3" d="M163.2,72.8v-6.6h1.1v6.6H163.2z"/>
			<path class="st3" d="M170.3,67.2v5.5h-1.1v-5.5h-2.1v-1h5.4v1H170.3z"/>
			<path class="st3" d="M178.5,71.1h-2.8l-0.6,1.7h-1.2l2.6-6.6h1.3l2.6,6.6h-1.2L178.5,71.1z M176.1,70.1h2l-1-2.7L176.1,70.1z"/>
			<path class="st3" d="M183.1,72.8v-6.6h1.1v5.5h3v1.1H183.1z"/>
			<path class="st3" d="M195.4,70.2v2.6h-1.1v-6.6h2.4c1.3,0,2.1,0.9,2.1,2c0,1.2-0.8,2-2.1,2H195.4z M196.6,69.2
				c0.7,0,1.1-0.4,1.1-1s-0.4-1-1.1-1h-1.2v2H196.6z"/>
			<path class="st3" d="M205.1,71.1h-2.8l-0.6,1.7h-1.2l2.6-6.6h1.3l2.6,6.6h-1.2L205.1,71.1z M202.7,70.1h2l-1-2.7L202.7,70.1z"/>
			<path class="st3" d="M211.6,70.2h-0.8v2.6h-1.1v-6.6h2.5c1.3,0,2.1,0.9,2.1,2c0,0.9-0.6,1.7-1.5,1.9l1.5,2.7H213L211.6,70.2z
				 M212,69.2c0.7,0,1.1-0.4,1.1-1s-0.4-1-1.1-1h-1.2v2H212z"/>
			<path class="st3" d="M219.9,67.2v5.5h-1.1v-5.5h-2.1v-1h5.4v1H219.9z"/>
			<path class="st3" d="M229.2,72.8l-3.2-5v5h-1.1v-6.6h1.4l3,4.7v-4.7h1.1v6.6H229.2z"/>
			<path class="st3" d="M233.8,72.8v-6.6h4.1v1h-3v1.7h2.7v1h-2.7v1.7h3v1h-4.1V72.8z"/>
			<path class="st3" d="M243,70.2h-0.8v2.6H241v-6.6h2.5c1.3,0,2.1,0.9,2.1,2c0,0.9-0.6,1.7-1.5,1.9l1.5,2.7h-1.3L243,70.2z
				 M243.4,69.2c0.7,0,1.1-0.4,1.1-1s-0.4-1-1.1-1h-1.2v2H243.4z"/>
			<path class="st3" d="M252,68c-0.1-0.4-0.4-1-1.3-1c-0.7,0-1.1,0.4-1.1,0.9c0,0.4,0.3,0.7,0.8,0.8l0.9,0.2c1.2,0.2,1.8,1,1.8,1.9
				c0,1-0.8,2-2.3,2c-1.7,0-2.4-1.1-2.5-2l1-0.3c0.1,0.7,0.6,1.3,1.5,1.3c0.8,0,1.2-0.4,1.2-0.9c0-0.4-0.3-0.8-0.9-0.9l-0.9-0.2
				c-1-0.2-1.7-0.9-1.7-1.8c0-1.1,1-2,2.2-2c1.6,0,2.2,0.9,2.3,1.7L252,68z"/>
		</g>
		<g>
			<polygon class="st4" points="173.5,-14.4 165.8,-30.4 158.1,-46.4 142.8,-46.4 150.5,-30.4 158.1,-14.4 165.8,1.6 181.2,1.6 			
				"/>
			<polygon class="st4" points="242.7,-14.4 235,-30.4 227.3,-46.4 211.9,-46.4 219.6,-30.4 227.3,-14.4 235,1.6 250.3,1.6 			"/>
			<rect x="188.9" y="-46.4" class="st4" width="15.4" height="47.9"/>
			<polygon class="st3" points="188.9,-46.4 181.2,-30.4 173.5,-14.4 165.8,1.6 181.2,1.6 188.9,-14.4 196.6,-30.4 204.2,-46.4 			
				"/>
			<polygon class="st3" points="211.9,-46.4 204.2,-30.4 196.6,-14.4 188.9,1.6 204.2,1.6 211.9,-14.4 219.6,-30.4 227.3,-46.4 			
				"/>
		</g>
		<g>
			<path class="st3" d="M109.3,49.2l-7.5-18.9c-1.1-2.6-1.5-3-3.8-3.2v-1.3h12v1.3h-0.4c-2,0.1-2.5,0.4-2.5,1.5c0,0.4,0,0.5,0.9,3.1
				l4,10.8l3.5-8.7c0.9-2.2,1.4-4,1.4-4.9c0-0.6-0.3-1.2-0.7-1.4c-0.3-0.2-0.5-0.2-1.8-0.3h-0.3v-1.3h8.7v1.3
				c-2.4,0.2-2.9,0.8-4.3,4.5L111,49.2H109.3z"/>
			<path class="st3" d="M127.6,43.7c-0.3,0.7-0.4,1.4-0.4,1.9c0,0.6,0.3,1.1,0.7,1.4c0.4,0.2,0.9,0.3,2.2,0.4v1.3h-8.3v-1.3
				c2.1-0.1,3-1.2,4.6-5l7-16.9h1.6l7.3,18.2c1.3,3.1,1.7,3.5,4,3.7v1.3h-11.7v-1.3h0.5c1.7-0.1,2.3-0.5,2.3-1.4
				c0-0.3-0.2-1.1-0.5-1.9l-0.9-2.4h-7.7L127.6,43.7z M135.5,40.1l-3.2-8.1l-3.3,8.1H135.5z"/>
			<path class="st3" d="M162.7,25.8c3.4,0,5.1,0.3,6.6,1.1c1.7,1,2.6,2.7,2.6,4.8c0,2.9-2.1,5-5.5,5.6c0,0,0,0,4.8,5.9
				c2.9,3.6,2.8,3.8,4.6,4.2v1.3h-4.6c-1.5,0-2.8-0.7-3.7-1.9l-5.9-8c-0.4-0.4-0.7-0.5-1.3-0.5h-0.5V42c0,5,0.2,5.4,3.3,5.4v1.3
				h-11.8v-1.3c3,0,3.3-0.4,3.3-5.4v-9.4c0-5-0.2-5.4-3.3-5.4v-1.3C151.3,25.8,159.3,25.8,162.7,25.8z M159.8,36.9
				c0.6,0,1.1,0,1.4,0c3.4,0,5-1.5,5-4.8c0-3.2-1.5-4.8-4.4-4.8c-1.3,0-1.7,0.1-1.8,0.3s-0.1,0.6-0.1,2.8L159.8,36.9L159.8,36.9z"/>
			<path class="st3" d="M185.5,43.7c-0.3,0.7-0.4,1.4-0.4,1.9c0,0.6,0.3,1.1,0.7,1.4c0.4,0.2,0.9,0.3,2.2,0.4v1.3h-8.3v-1.3
				c2.1-0.1,3-1.2,4.6-5l7.1-16.9h1.6l7.3,18.2c1.3,3.1,1.7,3.5,4,3.7v1.3h-11.8v-1.3h0.5c1.7-0.1,2.3-0.5,2.3-1.4
				c0-0.3-0.2-1.1-0.5-1.9l-0.9-2.4h-7.7L185.5,43.7z M193.3,40.1l-3.1-8.1l-3.3,8.1H193.3z"/>
			<path class="st3" d="M229.7,32.9h-1.5c-1.1-3.8-3.3-5.9-6.5-5.9c-4.4,0-7,3.9-7,10.6c0,6.1,2.5,9.8,6.7,9.8
				c1.4,0,2.8-0.5,3.6-1.2c0.6-0.7,0.9-1.5,0.9-2.9c0-2.4-0.3-2.8-2.8-3.1v-1.3h10.4v1.3c-1.9,0.1-2.2,0.4-2.2,2.5v4
				c-3.4,1.6-7.3,2.4-10.8,2.4c-3.4,0-6.5-1.2-8.6-3.3c-2.1-2.1-3.1-4.7-3.1-8c0-7.3,5-12.4,12-12.4c2.8,0,4.8,0.7,6.7,2.2l0.5-1.9
				h1.5L229.7,32.9z"/>
			<path class="st3" d="M264.4,37.6c0,3.3-1.6,6.5-4.2,8.7c-2.3,1.9-5.5,2.9-8.9,2.9c-7.5,0-13-5-13-11.8c0-6.9,5.5-11.9,13.1-11.9
				C259,25.5,264.4,30.5,264.4,37.6z M244.4,37.2c0,6.7,2.5,10.4,7.1,10.4c1.8,0,3.7-0.8,4.7-2c1.4-1.7,2.2-4.7,2.2-8
				c0-4.1-1-7.3-2.9-9c-0.9-0.9-2.5-1.4-4.1-1.4C246.9,27.1,244.4,30.7,244.4,37.2z"/>
			<path class="st3" d="M274.5,31.3v11.2c0,3.9,0.5,4.7,3.3,5v1.3h-8.1v-1.3c1.5-0.2,2.2-0.5,2.6-1.3c0.3-0.6,0.4-1.4,0.4-3.7V29.4
				c-1.3-1.8-1.6-2.1-3-2.2c-0.1,0-0.2,0-0.4,0v-1.3h7.3l13.8,15.7v-9.7c0-3.6-0.7-4.5-3.3-4.8v-1.3h8.1v1.3
				c-1.6,0.2-2.1,0.4-2.6,1.1c-0.4,0.7-0.5,1.3-0.5,3.8v17.1h-1.7L274.5,31.3z"/>
		</g>
	</g>
</g>
<g>
	<path class="st5" d="M110,49.9l-7.5-19.2c-1.1-2.7-1.6-3.1-3.9-3.2v-1.4h12.2v1.4h-0.5c-2,0.1-2.5,0.4-2.5,1.6c0,0.4,0,0.6,0.9,3.2
		l4.1,11l3.5-8.9c0.9-2.2,1.4-4.1,1.4-5c0-0.6-0.3-1.2-0.7-1.4c-0.3-0.2-0.5-0.2-1.8-0.3h-0.3v-1.4h8.8v1.4c-2.4,0.2-3,0.8-4.4,4.6
		l-7.4,17.9H110V49.9z"/>
	<path class="st5" d="M128.7,44.3c-0.3,0.7-0.5,1.4-0.5,1.9c0,0.6,0.3,1.2,0.7,1.5c0.4,0.2,0.9,0.3,2.2,0.4v1.4h-8.5v-1.4
		c2.1-0.1,3.1-1.2,4.7-5.1l7.2-17.3h1.7l7.5,18.6c1.3,3.2,1.7,3.6,4,3.8v1.4h-11.9v-1.4h0.6c1.8-0.1,2.4-0.5,2.4-1.5
		c0-0.3-0.2-1.1-0.5-2l-0.9-2.4h-7.8L128.7,44.3z M136.7,40.6l-3.2-8.3l-3.3,8.3H136.7z"/>
	<path class="st5" d="M164.4,26.1c3.4,0,5.2,0.3,6.8,1.2c1.7,1,2.7,2.8,2.7,4.8c0,3-2.1,5.1-5.6,5.7c0,0,0,0,4.9,6
		c3,3.7,2.8,3.9,4.6,4.3v1.4h-4.7c-1.5,0-2.9-0.7-3.8-1.9l-6-8.1c-0.3-0.4-0.6-0.5-1.2-0.5h-0.6v3.6c0,5.1,0.2,5.5,3.3,5.5v1.4h-12
		v-1.4c3.1,0,3.3-0.5,3.3-5.5V33c0-5.1-0.2-5.5-3.3-5.5v-1.4C152.9,26.1,161,26.1,164.4,26.1z M161.5,37.4c0.6,0,1.1,0,1.4,0
		c3.5,0,5.1-1.5,5.1-4.9c0-3.2-1.5-4.8-4.5-4.8c-1.3,0-1.7,0.1-1.8,0.3c-0.1,0.2-0.1,0.6-0.1,2.9v6.5H161.5z"/>
	<path class="st5" d="M187.7,44.3c-0.3,0.7-0.5,1.4-0.5,1.9c0,0.6,0.3,1.2,0.7,1.5c0.4,0.2,0.9,0.3,2.2,0.4v1.4h-8.5v-1.4
		c2.1-0.1,3.1-1.2,4.7-5.1l7.2-17.3h1.7l7.5,18.6c1.3,3.2,1.7,3.6,4,3.8v1.4h-11.9v-1.4h0.6c1.8-0.1,2.4-0.5,2.4-1.5
		c0-0.3-0.2-1.1-0.5-2l-0.9-2.4h-7.8L187.7,44.3z M195.7,40.6l-3.2-8.3l-3.3,8.3H195.7z"/>
	<path class="st5" d="M273.2,31.7v11.4c0,4,0.5,4.7,3.3,5.1v1.4h-8.2v-1.4c1.5-0.2,2.3-0.5,2.7-1.3c0.3-0.6,0.5-1.4,0.5-3.8V29.7
		c-1.3-1.8-1.7-2.1-3.1-2.3c-0.1,0-0.2,0-0.5,0v-1.3h7.4l14,16v-9.8c0-3.6-0.7-4.6-3.4-4.8v-1.4h8.3v1.4c-1.7,0.2-2.2,0.5-2.6,1.2
		c-0.5,0.7-0.5,1.3-0.5,3.9V50h-1.7L273.2,31.7z"/>
	<path class="st5" d="M222.8,37.7c0,0.4,0,1,0,1.4c0.4,0.1,0.8,0.1,1.2,0.2c1.2,0.2,2,0.8,2,1.9v5.2c0,0.9-0.7,1.6-1.6,1.7
		c-2.7,0.2-4.8-0.5-6-2c-1.1-1.4-1.7-3.1-2-4.9s-0.4-3.6-0.2-5.4c0.2-1.9,0.7-3.7,1.7-5.3c2.3-3.6,7-3.8,9.7-1.1
		c0.9,0.9,1.7,2.2,2.2,3.4h1.4V26h-1.4c0,0.1-0.1,0.5-0.2,0.6c-0.2,0.5-0.7,0.8-1.3,0.7c-0.6-0.2-1.4-0.5-2-0.7
		c-1.9-0.6-3.9-1-5.9-0.7c-2.5,0.3-4.6,1.3-6.5,2.9c-1.4,1.3-2.6,2.7-3.3,4.5c-0.8,2.1-1,4.2-0.7,6.4c0.3,2.3,1.4,4.4,2.9,6.1
		c2.5,2.6,5.6,3.9,9.2,4.1c2.1,0.1,4.2-0.2,6.2-0.9c1.1-0.4,2-0.9,3-1.3c0,0,0-4.7,0-6.4c0-1.5,1-2.2,2.1-2.2v-1.4
		C229.8,37.7,226.4,37.7,222.8,37.7z"/>
	<path class="st5" d="M251.4,25.7c-6.7,0-12.1,5.4-12.1,12.1s5.4,12.1,12.1,12.1c6.7,0,12.1-5.4,12.1-12.1S258.1,25.7,251.4,25.7z
		 M255.5,46.2c-0.8,1.3-2.4,2.1-4,2.1c-3.9,0-6.1-3.8-6.1-10.6c0-6.6,2.1-10.3,5.9-10.3c1.3,0,2.7,0.6,3.5,1.5
		c1.6,1.8,2.5,5,2.5,9.2C257.3,41.5,256.7,44.5,255.5,46.2z"/>
</g>
</svg>
